<?xml version="1.0" encoding="UTF-8"?><svg id="Laag_1" xmlns="http://www.w3.org/2000/svg" viewBox="0 0 16 16"><defs><style>.cls-1{fill:#dc143c;}</style></defs><path class="cls-1" d="M8,1.5c3.58,0,6.5,2.92,6.5,6.5s-2.92,6.5-6.5,6.5S1.5,11.58,1.5,8,4.42,1.5,8,1.5m0-1C3.86,.5,.5,3.86,.5,8s3.36,7.5,7.5,7.5,7.5-3.36,7.5-7.5S12.14,.5,8,.5h0Z"/><g><ellipse class="cls-1" cx="5.5" cy="5.5" rx="1" ry="2"/><path class="cls-1" d="M5.5,4.01c.16,.09,.5,.62,.5,1.49s-.38,1.45-.48,1.5c-.14-.05-.52-.59-.52-1.5s.34-1.4,.5-1.49m0-1.01c-.83,0-1.5,1.12-1.5,2.5s.67,2.5,1.5,2.5,1.5-1.12,1.5-2.5-.67-2.5-1.5-2.5h0Z"/></g><g><ellipse class="cls-1" cx="10.5" cy="5.5" rx="1" ry="2"/><path class="cls-1" d="M10.5,4.01c.16,.09,.5,.62,.5,1.49s-.38,1.45-.48,1.5c-.14-.05-.52-.59-.52-1.5s.34-1.4,.5-1.49m0-1.01c-.83,0-1.5,1.12-1.5,2.5s.67,2.5,1.5,2.5,1.5-1.12,1.5-2.5-.67-2.5-1.5-2.5h0Z"/></g><g><path class="cls-1" d="M7.96,12.5c-1.47,0-2.71-1.17-3.21-1.94h.02c.75,.38,1.88,.94,3.19,.94,1.35-.02,2.48-.57,3.23-.93,.03-.02,.07-.03,.1-.05-.16,.26-.42,.58-.77,.9-.45,.4-1.36,1.07-2.51,1.08h-.04Z"/><path class="cls-1" d="M7.98,12h0m3.85-2.21c-.5,0-2.01,1.19-3.82,1.21h-.05c-1.8,0-3.3-1.21-3.79-1.21-.11,0-.16,.06-.16,.21,.01,.81,1.75,3,3.96,3h.04c2.23-.03,4.01-2.19,4-3,0-.15-.06-.21-.18-.21h0Z"/></g></svg>